#!OML:ASF H:\Terrain\Patient Classification 1\Walking\liu\liu.ASF
:FULLY-SPECIFIED
:DEGREES
304
root 9.0677 17.0872 12.6626 3.42459 1.92788 -3.82683
lowerback -4.93883 -2.45368 0.16983
upperback 0.578547 -3.43283 4.21082
thorax 3.61959 -1.75238 3.98621
lowerneck -22.0349 -3.01242 -10.9013
upperneck 24.1894 -3.51745 10.7833
head 12.001 -1.20009 5.35233
rclavicle 3.926e-015 -1.74931e-014
rhumerus -38.1206 3.20811 -82.6117
rradius 21.9919
rwrist -3.1371
rhand -29.8635 -24.7484
rfingers 7.12502
rthumb -3.18565 -54.7043
lclavicle 3.926e-015 -1.74931e-014
lhumerus -29.8551 -17.972 96.2244
lradius 33.9169
lwrist 7.10231
lhand -11.8299 -25.1502
lfingers 7.12502
lthumb 14.2209 4.34292
rfemur -20.4784 -0.235162 29.1469
rtibia 27.2793
rfoot -10.4525 2.30583
rtoes -12.2081
lfemur -7.42018 15.2608 -11.294
ltibia 61.5871
lfoot 1.30177 13.5079
ltoes -5.2388
305
root 9.0521 17.1071 12.8002 3.46096 1.81525 -3.94796
lowerback -4.85341 -2.24228 0.213546
upperback 0.59317 -3.15368 4.28149
thorax 3.56859 -1.61303 4.06226
lowerneck -21.738 -3.16008 -11.1197
upperneck 23.8633 -3.68447 10.8725
head 11.846 -1.28835 5.3795
rclavicle -4.3186e-014 5.24792e-014
rhumerus -37.8705 3.76308 -82.7927
rradius 22.7354
rwrist -3.6477
rhand -28.4471 -26.7753
rfingers 7.12502
rthumb -1.81771 -56.7473
lclavicle -4.3186e-014 5.24792e-014
lhumerus -30.3752 -17.6043 96.537
lradius 33.3385
lwrist 6.48272
lhand -11.6199 -24.9722
lfingers 7.12502
lthumb 14.4233 4.5066
rfemur -19.6469 -0.115145 29.3382
rtibia 26.6558
rfoot -10.6531 2.4214
rtoes -12.9649
lfemur -9.18183 15.2547 -11.4292
ltibia 63.3866
lfoot 0.229527 14.6087
ltoes -4.11924
306
root 9.03092 17.2281 12.9582 3.61184 1.76127 -3.87222
lowerback -4.84832 -1.99673 0.0965571
upperback 0.574175 -2.81398 4.18754
thorax 3.52216 -1.44422 4.05899
lowerneck -21.5945 -3.36128 -10.9829
upperneck 23.5588 -3.98776 10.781
head 11.7375 -1.4242 5.25483
rclavicle -4.07509e-015 -1.82882e-014
rhumerus -37.8784 4.85038 -83.5771
rradius 23.9171
rwrist -5.66919
rhand -29.0931 -27.6123
rfingers 7.12502
rthumb -2.44163 -57.578
lclavicle -4.07509e-015 -1.82882e-014
lhumerus -30.9875 -17.8281 96.7774
lradius 32.8392
lwrist 6.28408
lhand -11.1645 -24.8735
lfingers 7.12502
lthumb 14.862 4.5735
rfemur -18.8846 0.0239203 29.3106
rtibia 26.2331
rfoot -11.0339 2.40477
rtoes -12.6609
lfemur -10.7527 14.2338 -12.2079
ltibia 64.4941
lfoot -0.814907 16.2167
ltoes -3.23503
307
root 9.02017 17.1652 13.0795 3.84987 1.73971 -3.51262
lowerback -4.90454 -1.89695 -0.287015
upperback 0.535369 -2.6525 4.0441
thorax 3.51233 -1.36916 4.13815
lowerneck -21.7351 -3.48136 -10.9545
upperneck 23.5324 -4.16381 10.8207
head 11.7794 -1.49198 5.23634
rclavicle -1.49089e-015 4.77083e-015
rhumerus -37.911 6.56033 -84.628
rradius 25.1824
rwrist -8.33801
rhand -34.1822 -22.65
rfingers 7.12502
rthumb -7.35539 -52.5021
lclavicle -1.49089e-015 4.77083e-015
lhumerus -31.6601 -17.8173 96.9526
lradius 32.4703
lwrist 6.3938
lhand -10.7627 -24.6654
lfingers 7.12502
lthumb 15.2491 4.75251
rfemur -18.756 0.047498 29.0318
rtibia 26.2355
rfoot -11.2396 2.30532
rtoes -12.3953
lfemur -12.8538 14.393 -12.8543
ltibia 66.1517
lfoot -2.55542 16.3923
ltoes -5.93049
308
root 9.00152 17.1536 13.1991 4.00618 1.59094 -3.20209
lowerback -4.78687 -1.80223 -0.703168
upperback 0.443613 -2.49292 3.94308
thorax 3.35204 -1.29399 4.28575
lowerneck -21.3618 -3.52207 -11.3425
upperneck 23.2807 -4.25947 11.3559
head 11.6462 -1.51207 5.48357
rclavicle 1.84373e-014 -1.59028e-014
rhumerus -37.5273 7.35947 -84.9839
rradius 25.738
rwrist -8.85283
rhand -31.9378 -22.7296
rfingers 7.12502
rthumb -5.18865 -52.646
lclavicle 1.84373e-014 -1.59028e-014
lhumerus -32.4499 -17.4874 97.0669
lradius 32.1675
lwrist 6.1939
lhand -10.6221 -24.4694
lfingers 7.12502
lthumb 15.3845 4.93816
rfemur -18.441 0.468758 28.7867
rtibia 26.1769
rfoot -11.4604 2.05869
rtoes -12.3729
lfemur -14.7954 14.3796 -13.4896
ltibia 67.3853
lfoot -3.91652 16.4459
ltoes -9.26839
